<svg width="11" height="19" viewBox="0 0 11 19" fill="none" xmlns="http://www.w3.org/2000/svg">
<path opacity="0.5" d="M8.05057 9.3762L0.274941 1.60245C0.0989031 1.42641 7.04751e-06 1.18765 7.02575e-06 0.938697C7.00398e-06 0.689742 0.098903 0.450984 0.274941 0.274947C0.450979 0.0989102 0.689737 1.41929e-05 0.93869 1.41712e-05C1.18765 1.41494e-05 1.4264 0.0989102 1.60244 0.274947L10.0399 8.71245C10.1272 8.79953 10.1965 8.90299 10.2438 9.01688C10.291 9.13078 10.3154 9.25288 10.3154 9.3762C10.3154 9.49951 10.291 9.62161 10.2438 9.73551C10.1965 9.84941 10.1272 9.95286 10.0399 10.0399L1.60244 18.4774C1.4264 18.6535 1.18765 18.7524 0.938692 18.7524C0.689738 18.7524 0.45098 18.6535 0.274942 18.4774C0.0989046 18.3014 8.52277e-06 18.0627 8.50101e-06 17.8137C8.47924e-06 17.5647 0.0989045 17.326 0.274942 17.1499L8.05057 9.3762Z" fill="#3D3D3D"/>
</svg>
