<svg width="22" height="22" viewBox="0 0 22 22" fill="none" xmlns="http://www.w3.org/2000/svg">
<circle cx="11.0002" cy="11" r="11" fill="#FCBC9E"/>
<path d="M4.42088 10.4796C4.39548 10.3782 4.39353 10.2724 4.41517 10.1701C4.43681 10.0679 4.48148 9.97193 4.54577 9.88954C4.61006 9.80715 4.69229 9.74051 4.7862 9.69467C4.88012 9.64883 4.98325 9.625 5.08775 9.625H17.0778C17.1822 9.62503 17.2852 9.64885 17.3791 9.69465C17.4729 9.74045 17.5551 9.80703 17.6194 9.88933C17.6837 9.97163 17.7284 10.0675 17.7501 10.1696C17.7718 10.2718 17.7699 10.3775 17.7446 10.4789L16.4996 15.4584C16.4252 15.7559 16.2536 16.02 16.0119 16.2087C15.7702 16.3974 15.4724 16.5 15.1658 16.5H6.99969C6.69307 16.5 6.39526 16.3974 6.1536 16.2087C5.91194 16.02 5.74029 15.7559 5.66594 15.4584L4.42088 10.4796Z" stroke="white" stroke-linejoin="round"/>
<path d="M9.02026 12.375V13.75M13.1453 12.375V13.75M6.95776 9.625L9.70776 5.5M15.2078 9.625L12.4578 5.5" stroke="white" stroke-linecap="round"/>
</svg>
