<svg width="22" height="22" viewBox="0 0 22 22" fill="none" xmlns="http://www.w3.org/2000/svg">
<path opacity="0.5" d="M10.9989 -0.00201416C17.0747 -0.00201416 22 4.92329 22 10.9991C22 17.0738 17.0747 21.998 10.9989 21.998C4.92311 21.998 1.84221e-07 17.0738 1.84221e-07 10.9991C-0.00109971 4.92329 4.92311 -0.00201416 10.9989 -0.00201416ZM10.9989 1.64782C9.76241 1.63441 8.53554 1.86637 7.3893 2.33027C6.24306 2.79417 5.2002 3.48081 4.3211 4.35043C3.44199 5.22006 2.74408 6.25541 2.26778 7.39655C1.79147 8.5377 1.54622 9.76198 1.54622 10.9985C1.54622 12.2351 1.79147 13.4594 2.26778 14.6005C2.74408 15.7417 3.44199 16.777 4.3211 17.6466C5.2002 18.5163 6.24306 19.2029 7.3893 19.6668C8.53554 20.1307 9.76241 20.3627 10.9989 20.3493C13.4613 20.3225 15.8138 19.3256 17.5456 17.5749C19.2774 15.8242 20.2488 13.4611 20.2488 10.9985C20.2488 8.53599 19.2774 6.17284 17.5456 4.42215C15.8138 2.67145 13.4613 1.67453 10.9989 1.64782ZM10.9945 9.34705C11.194 9.34679 11.3869 9.41886 11.5374 9.54991C11.6878 9.68096 11.7857 9.8621 11.8128 10.0598L11.8205 10.172L11.8249 16.2236C11.8271 16.4341 11.7486 16.6374 11.6057 16.792C11.4628 16.9465 11.2662 17.0406 11.0562 17.055C10.8462 17.0693 10.6387 17.0028 10.4761 16.8691C10.3135 16.7354 10.2082 16.5446 10.1817 16.3358L10.1751 16.2247L10.1707 10.1731C10.1707 9.95429 10.2576 9.74447 10.4123 9.58976C10.567 9.43506 10.7768 9.34815 10.9956 9.34815M11.0011 5.50184C11.1482 5.49718 11.2948 5.52214 11.4321 5.57523C11.5695 5.62833 11.6947 5.70848 11.8004 5.81092C11.9062 5.91336 11.9902 6.03601 12.0477 6.17157C12.1051 6.30713 12.1346 6.45285 12.1346 6.60008C12.1346 6.7473 12.1051 6.89302 12.0477 7.02858C11.9902 7.16415 11.9062 7.28679 11.8004 7.38923C11.6947 7.49167 11.5695 7.57182 11.4321 7.62492C11.2948 7.67801 11.1482 7.70297 11.0011 7.69832C10.7158 7.68929 10.4453 7.56962 10.2467 7.36465C10.0481 7.15967 9.93707 6.88547 9.93707 6.60008C9.93707 6.31468 10.0481 6.04048 10.2467 5.8355C10.4453 5.63053 10.7158 5.51086 11.0011 5.50184Z" fill="#3D3D3D"/>
</svg>
