<svg width="30" height="30" viewBox="0 0 30 30" fill="none" xmlns="http://www.w3.org/2000/svg">
<circle cx="15" cy="15" r="15" fill="#FCBC9E"/>
<g clip-path="url(#clip0_8_283)">
<path d="M15 9.91671C15.9667 9.91671 16.75 10.7 16.75 11.6667C16.75 12.6334 15.9667 13.4167 15 13.4167C14.0334 13.4167 13.25 12.6334 13.25 11.6667C13.25 10.7 14.0334 9.91671 15 9.91671ZM15 17.4167C17.4792 17.4167 20.0834 18.6292 20.0834 19.1667V20.0834H9.91671V19.1667C9.91671 18.6292 12.5209 17.4167 15 17.4167ZM15 8.33337C13.1584 8.33337 11.6667 9.82504 11.6667 11.6667C11.6667 13.5042 13.1584 15 15 15C16.8417 15 18.3334 13.5042 18.3334 11.6667C18.3334 9.82504 16.8417 8.33337 15 8.33337ZM15 15.8334C12.7792 15.8334 8.33337 16.9459 8.33337 19.1667V21.6667H21.6667V19.1667C21.6667 16.9459 17.2209 15.8334 15 15.8334Z" fill="white"/>
</g>
<defs>
<clipPath id="clip0_8_283">
<rect width="20" height="20" fill="white" transform="translate(5 5)"/>
</clipPath>
</defs>
</svg>
