<svg width="12" height="13" viewBox="0 0 12 13" fill="none" xmlns="http://www.w3.org/2000/svg">
<path opacity="0.3" d="M7.82061 9.6778C7.534 9.39119 7.534 8.9265 7.82061 8.63989C8.10722 8.35327 8.57191 8.35327 8.85853 8.63989L11.7942 11.5756C12.0808 11.8622 12.0808 12.3269 11.7942 12.6135C11.5076 12.9001 11.0429 12.9001 10.7563 12.6135L7.82061 9.6778Z" fill="#D09B9D"/>
<path fill-rule="evenodd" clip-rule="evenodd" d="M0.266357 5.48941C0.266357 8.32672 2.56646 10.6268 5.40377 10.6268C8.24109 10.6268 10.5412 8.32672 10.5412 5.48941C10.5412 2.65209 8.24109 0.35199 5.40377 0.35199C2.56646 0.35199 0.266357 2.65209 0.266357 5.48941ZM9.07342 5.48939C9.07342 7.51604 7.43049 9.15897 5.40384 9.15897C3.37719 9.15897 1.73426 7.51604 1.73426 5.48939C1.73426 3.46274 3.37719 1.81981 5.40384 1.81981C7.43049 1.81981 9.07342 3.46274 9.07342 5.48939Z" fill="#B1464A" fill-opacity="0.5"/>
</svg>
